<svg width="432" height="308" viewBox="0 0 432 308" fill="none" xmlns="http://www.w3.org/2000/svg">
<g filter="url(#filter0_ddddi_6_2267)">
<g clip-path="url(#clip0_6_2267)">
<rect x="32" y="7" width="368" height="216" rx="32" fill="#FFF7DB"/>
<g filter="url(#filter1_ddd_6_2267)">
<path d="M32.0039 7L400 7V139.923C386.408 189.013 341.731 223 290.794 223H201.845H184.153H32.0039V7Z" fill="#FFEBA6"/>
<path d="M32.0039 7L400 7V139.923C386.408 189.013 341.731 223 290.794 223H201.845H184.153H32.0039V7Z" fill="black" fill-opacity="0.16"/>
<path d="M32.0035 7L399.997 7C399.997 7 399.997 65.241 399.997 137.846C399.997 166.923 263.767 154.462 263.767 154.462C263.767 154.462 279.69 223 230.155 223C137.775 223 32 223 32 223C32 223 32.0035 177.168 32.0035 131.336C32.0035 85.5042 32.0035 7 32.0035 7Z" fill="#FFEBA6"/>
<path d="M32.0035 7L399.997 7C399.997 7 399.997 65.241 399.997 137.846C399.997 166.923 263.767 154.462 263.767 154.462C263.767 154.462 279.69 223 230.155 223C137.775 223 32 223 32 223C32 223 32.0035 177.168 32.0035 131.336C32.0035 85.5042 32.0035 7 32.0035 7Z" fill="url(#paint0_linear_6_2267)"/>
</g>
</g>
</g>
<defs>
<filter id="filter0_ddddi_6_2267" x="0" y="0" width="432" height="308" filterUnits="userSpaceOnUse" color-interpolation-filters="sRGB">
<feFlood flood-opacity="0" result="BackgroundImageFix"/>
<feColorMatrix in="SourceAlpha" type="matrix" values="0 0 0 0 0 0 0 0 0 0 0 0 0 0 0 0 0 0 127 0" result="hardAlpha"/>
<feOffset dy="53"/>
<feGaussianBlur stdDeviation="16"/>
<feComposite in2="hardAlpha" operator="out"/>
<feColorMatrix type="matrix" values="0 0 0 0 0 0 0 0 0 0 0 0 0 0 0 0 0 0 0.02 0"/>
<feBlend mode="normal" in2="BackgroundImageFix" result="effect1_dropShadow_6_2267"/>
<feColorMatrix in="SourceAlpha" type="matrix" values="0 0 0 0 0 0 0 0 0 0 0 0 0 0 0 0 0 0 127 0" result="hardAlpha"/>
<feOffset dy="6"/>
<feGaussianBlur stdDeviation="6.5"/>
<feComposite in2="hardAlpha" operator="out"/>
<feColorMatrix type="matrix" values="0 0 0 0 0 0 0 0 0 0 0 0 0 0 0 0 0 0 0.04 0"/>
<feBlend mode="normal" in2="effect1_dropShadow_6_2267" result="effect2_dropShadow_6_2267"/>
<feColorMatrix in="SourceAlpha" type="matrix" values="0 0 0 0 0 0 0 0 0 0 0 0 0 0 0 0 0 0 127 0" result="hardAlpha"/>
<feOffset dy="1"/>
<feGaussianBlur stdDeviation="1.5"/>
<feComposite in2="hardAlpha" operator="out"/>
<feColorMatrix type="matrix" values="0 0 0 0 0.560784 0 0 0 0 0.560784 0 0 0 0 0.560784 0 0 0 0.2 0"/>
<feBlend mode="normal" in2="effect2_dropShadow_6_2267" result="effect3_dropShadow_6_2267"/>
<feColorMatrix in="SourceAlpha" type="matrix" values="0 0 0 0 0 0 0 0 0 0 0 0 0 0 0 0 0 0 127 0" result="hardAlpha"/>
<feMorphology radius="1" operator="dilate" in="SourceAlpha" result="effect4_dropShadow_6_2267"/>
<feOffset/>
<feComposite in2="hardAlpha" operator="out"/>
<feColorMatrix type="matrix" values="0 0 0 0 0.917647 0 0 0 0 0.917647 0 0 0 0 0.917647 0 0 0 1 0"/>
<feBlend mode="normal" in2="effect3_dropShadow_6_2267" result="effect4_dropShadow_6_2267"/>
<feBlend mode="normal" in="SourceGraphic" in2="effect4_dropShadow_6_2267" result="shape"/>
<feColorMatrix in="SourceAlpha" type="matrix" values="0 0 0 0 0 0 0 0 0 0 0 0 0 0 0 0 0 0 127 0" result="hardAlpha"/>
<feOffset dy="-2.4"/>
<feComposite in2="hardAlpha" operator="arithmetic" k2="-1" k3="1"/>
<feColorMatrix type="matrix" values="0 0 0 0 0.239216 0 0 0 0 0.239216 0 0 0 0 0.239216 0 0 0 0.04 0"/>
<feBlend mode="normal" in2="shape" result="effect5_innerShadow_6_2267"/>
</filter>
<filter id="filter1_ddd_6_2267" x="9.9733" y="-3.27913" width="412.053" height="260.053" filterUnits="userSpaceOnUse" color-interpolation-filters="sRGB">
<feFlood flood-opacity="0" result="BackgroundImageFix"/>
<feColorMatrix in="SourceAlpha" type="matrix" values="0 0 0 0 0 0 0 0 0 0 0 0 0 0 0 0 0 0 127 0" result="hardAlpha"/>
<feOffset/>
<feGaussianBlur stdDeviation="3.304"/>
<feColorMatrix type="matrix" values="0 0 0 0 0 0 0 0 0 0 0 0 0 0 0 0 0 0 0.1 0"/>
<feBlend mode="normal" in2="BackgroundImageFix" result="effect1_dropShadow_6_2267"/>
<feColorMatrix in="SourceAlpha" type="matrix" values="0 0 0 0 0 0 0 0 0 0 0 0 0 0 0 0 0 0 127 0" result="hardAlpha"/>
<feOffset dy="11.7476"/>
<feGaussianBlur stdDeviation="11.0133"/>
<feColorMatrix type="matrix" values="0 0 0 0 0 0 0 0 0 0 0 0 0 0 0 0 0 0 0.08 0"/>
<feBlend mode="normal" in2="effect1_dropShadow_6_2267" result="effect2_dropShadow_6_2267"/>
<feColorMatrix in="SourceAlpha" type="matrix" values="0 0 0 0 0 0 0 0 0 0 0 0 0 0 0 0 0 0 127 0" result="hardAlpha"/>
<feOffset dy="5.87379"/>
<feGaussianBlur stdDeviation="4.40534"/>
<feColorMatrix type="matrix" values="0 0 0 0 0 0 0 0 0 0 0 0 0 0 0 0 0 0 0.06 0"/>
<feBlend mode="normal" in2="effect2_dropShadow_6_2267" result="effect3_dropShadow_6_2267"/>
<feBlend mode="normal" in="SourceGraphic" in2="effect3_dropShadow_6_2267" result="shape"/>
</filter>
<linearGradient id="paint0_linear_6_2267" x1="215.998" y1="223" x2="215.998" y2="38.95" gradientUnits="userSpaceOnUse">
<stop stop-color="white" stop-opacity="0.18"/>
<stop offset="1" stop-color="white" stop-opacity="0"/>
</linearGradient>
<clipPath id="clip0_6_2267">
<rect x="32" y="7" width="368" height="216" rx="32" fill="white"/>
</clipPath>
</defs>
</svg>
