<svg width="64" height="64" viewBox="0 0 64 64" fill="none" xmlns="http://www.w3.org/2000/svg">
<g clip-path="url(#clip0_5_2052)">
<path d="M63.7085 27.0073V53.8321C63.7048 55.1855 63.1655 56.4824 62.2085 57.4394C61.2515 58.3964 59.9546 58.9356 58.6013 58.9394H31.7694C31.0981 58.9398 30.4333 58.808 29.813 58.5513C29.1927 58.2946 28.6291 57.9182 28.1544 57.4435C27.6798 56.9688 27.3033 56.4052 27.0467 55.7849C26.79 55.1646 26.6581 54.4998 26.6586 53.8286V44.9802H8.84852C7.34833 44.9746 5.91118 44.3761 4.85037 43.3153C3.78957 42.2545 3.19114 40.8174 3.18555 39.3172V13.6356C3.18647 12.1324 3.78284 10.6907 4.84415 9.62606C5.90545 8.56143 7.34527 7.96057 8.84852 7.95496H44.0049C45.512 7.95962 46.956 8.56036 48.0216 9.62601C49.0873 10.6917 49.688 12.1357 49.6927 13.6427V21.8929H58.5836C59.2561 21.8915 59.9223 22.0228 60.544 22.2792C61.1657 22.5356 61.7308 22.9121 62.2068 23.3871C62.6829 23.8622 63.0605 24.4265 63.3182 25.0477C63.5759 25.6689 63.7085 26.3348 63.7085 27.0073Z" fill="black"/>
<path d="M60.035 23.8253V50.6501C60.035 51.8704 59.5503 53.0407 58.6874 53.9036C57.8245 54.7665 56.6542 55.2512 55.4339 55.2512H28.5914C27.9872 55.2512 27.3888 55.1322 26.8306 54.901C26.2724 54.6697 25.7651 54.3308 25.3379 53.9036C24.9106 53.4763 24.5717 52.9691 24.3405 52.4108C24.1092 51.8526 23.9902 51.2543 23.9902 50.6501V41.3239H40.8517C41.533 41.3243 42.2076 41.1905 42.8371 40.9302C43.4666 40.6698 44.0386 40.2879 44.5205 39.8064C45.0023 39.3249 45.3846 38.7531 45.6454 38.1238C45.9062 37.4945 46.0404 36.8199 46.0404 36.1387V19.2064H55.4303C56.6529 19.2102 57.8241 19.6984 58.6872 20.5642C59.5504 21.43 60.035 22.6027 60.035 23.8253Z" fill="#A259FF"/>
<path d="M17.2578 17.3273H49.7031V39.3102C49.7031 40.8178 49.1042 42.2636 48.0382 43.3296C46.9722 44.3955 45.5264 44.9944 44.0189 44.9944H17.2578V17.3273Z" fill="black"/>
<path d="M40.8402 5.26526H5.68381C2.81818 5.26526 0.495117 7.58832 0.495117 10.454V36.1355C0.495117 39.0012 2.81818 41.3242 5.68381 41.3242H40.8402C43.7059 41.3242 46.0289 39.0012 46.0289 36.1355V10.454C46.0289 7.58832 43.7059 5.26526 40.8402 5.26526Z" fill="#C7B9FF"/>
<path d="M40.1784 15.8442H38.7627V13.3454H40.1784C41.2402 13.3454 42.0259 12.4499 42.0259 11.282C42.0187 10.7441 41.8028 10.23 41.4237 9.84836C41.0447 9.46666 40.5322 9.24717 39.9944 9.23621C38.8405 9.23621 37.9451 10.0326 37.9451 11.105V12.5207H35.4463V11.105C35.4393 11.0682 35.4274 11.0325 35.4109 10.9988C35.3347 10.5178 35.0885 10.08 34.717 9.76505C34.3455 9.45007 33.8734 9.27876 33.3864 9.28222C32.8483 9.29043 32.3345 9.50786 31.9539 9.88842C31.5734 10.269 31.3559 10.7828 31.3477 11.3209C31.3438 11.8534 31.5488 12.3663 31.9187 12.7494C32.2886 13.1325 32.7939 13.3554 33.3262 13.3702H34.611V15.869H33.1953C32.1618 15.869 31.3725 16.7857 31.3725 17.9678C31.3827 18.5017 31.602 19.0103 31.9832 19.3843C32.3644 19.7582 32.8771 19.9676 33.4112 19.9675C34.565 19.9675 35.4711 19.1818 35.4711 18.1094V16.6936H37.9734V18.1094C37.9734 19.1712 38.8653 19.9569 40.0333 19.9569C40.5727 19.9497 41.0882 19.7329 41.4706 19.3524C41.8531 18.9719 42.0725 18.4576 42.0826 17.9182C42.0366 16.7396 41.2508 15.8442 40.1784 15.8442ZM38.7627 11.105C38.7683 10.9457 38.8063 10.7893 38.8741 10.6451C38.942 10.5009 39.0384 10.372 39.1575 10.2662C39.2766 10.1603 39.4159 10.0797 39.5671 10.0292C39.7182 9.97869 39.878 9.95937 40.0368 9.97239C40.3729 9.97519 40.6943 10.1107 40.9309 10.3493C41.1676 10.588 41.3004 10.9105 41.3004 11.2466C41.3004 11.8907 40.9075 12.5207 40.1784 12.5207H38.7627V11.105ZM34.6039 18.0846C34.5968 18.2434 34.5579 18.3991 34.4895 18.5426C34.4212 18.686 34.3248 18.8143 34.206 18.9199C34.0872 19.0255 33.9485 19.1062 33.798 19.1573C33.6475 19.2083 33.4883 19.2287 33.3298 19.2172C33.1658 19.221 33.0027 19.192 32.85 19.1321C32.6973 19.0721 32.5581 18.9824 32.4405 18.868C32.3228 18.7537 32.2292 18.6171 32.1649 18.4662C32.1007 18.3153 32.0671 18.1531 32.0662 17.989C32.0662 17.3449 32.4591 16.6795 33.1634 16.6795H34.5791V18.0952L34.6039 18.0846ZM34.6039 12.5101H33.3191C32.9942 12.4904 32.6892 12.3468 32.4671 12.1088C32.245 11.8708 32.1226 11.5567 32.1254 11.2312C32.1281 10.9057 32.2556 10.5936 32.4817 10.3594C32.7078 10.1251 33.0151 9.98663 33.3404 9.97239C33.5057 9.96958 33.6699 9.99942 33.8236 10.0602C33.9774 10.121 34.1176 10.2115 34.2363 10.3266C34.355 10.4417 34.4499 10.579 34.5154 10.7308C34.5809 10.8826 34.6158 11.0459 34.6181 11.2112V12.5101H34.6039ZM37.938 15.8442H35.4392V13.3454H37.938V15.8442ZM40.0616 19.1924C39.4174 19.1924 38.7874 18.8102 38.7874 18.0846V16.6689H40.2032C40.3621 16.6742 40.5182 16.7114 40.6624 16.7784C40.8066 16.8453 40.9359 16.9405 41.0425 17.0584C41.1492 17.1763 41.231 17.3144 41.2832 17.4645C41.3354 17.6147 41.3569 17.7738 41.3464 17.9324C41.345 18.1008 41.3102 18.2672 41.244 18.422C41.1777 18.5768 41.0814 18.7169 40.9605 18.8341C40.8396 18.9514 40.6967 19.0434 40.5399 19.1049C40.3832 19.1664 40.2158 19.1962 40.0474 19.1924H40.0616Z" fill="black"/>
<path d="M55.4192 18.7109H46.5284V10.4536C46.5256 8.94632 45.9253 7.50162 44.8592 6.43613C43.793 5.37064 42.3479 4.77128 40.8406 4.76941H5.68421C4.17752 4.77222 2.73335 5.37199 1.66797 6.43737C0.602578 7.50276 0.00280662 8.94693 0 10.4536L0 36.1387C0.00280921 37.6451 0.602694 39.0889 1.66818 40.1537C2.73367 41.2185 4.17785 41.8175 5.68421 41.8194H23.4836V50.6501C23.4836 52.005 24.0216 53.3044 24.9793 54.2627C25.937 55.2211 27.2361 55.76 28.5909 55.7609H55.4192C56.7732 55.7581 58.0708 55.2185 59.0275 54.2605C59.9843 53.3024 60.5221 52.0041 60.523 50.6501V23.8253C60.5221 22.471 59.9844 21.1723 59.0278 20.2137C58.0711 19.2551 56.7735 18.7147 55.4192 18.7109ZM5.68421 40.8284C4.4404 40.8274 3.24775 40.3332 2.36791 39.454C1.48807 38.5748 0.992894 37.3825 0.99102 36.1387V10.4536C0.992892 9.20948 1.48795 8.01684 2.36769 7.1371C3.24743 6.25736 4.44007 5.7623 5.68421 5.76043H40.8406C42.0851 5.76137 43.2782 6.25613 44.1582 7.13607C45.0381 8.01601 45.5329 9.20919 45.5338 10.4536V36.1387C45.5319 37.3825 45.0368 38.5748 44.1569 39.454C43.2771 40.3332 42.0844 40.8274 40.8406 40.8284H5.68421ZM59.5391 50.6501C59.5381 51.7424 59.1038 52.7898 58.3314 53.5622C57.5589 54.3346 56.5116 54.769 55.4192 54.7699H28.5909C27.4989 54.769 26.4519 54.3345 25.6801 53.562C24.9082 52.7895 24.4746 51.7421 24.4746 50.6501V41.8194H40.8406C42.3476 41.8185 43.7927 41.2199 44.8589 40.155C45.9252 39.09 46.5256 37.6457 46.5284 36.1387V19.7055H55.4192C56.5116 19.7064 57.5589 20.1408 58.3314 20.9132C59.1038 21.6856 59.5381 22.733 59.5391 23.8253V50.6501Z" fill="black"/>
</g>
<defs>
<clipPath id="clip0_5_2052">
<rect width="63.7084" height="54.1698" fill="white" transform="translate(0 4.76941)"/>
</clipPath>
</defs>
</svg>
