<svg width="49" height="63" viewBox="0 0 49 63" fill="none" xmlns="http://www.w3.org/2000/svg">
<g clip-path="url(#clip0_5_2201)">
<path d="M23.0014 59.3546C6.00154 59.3546 0.499023 45.8148 0.499023 39.2543C0.499023 34.7364 1.95147 31.7791 2.94304 30.2743C2.94304 32.6101 3.54706 34.6736 4.62242 35.8606C4.90231 36.1983 5.25191 36.4714 5.64725 36.6612C6.04259 36.851 6.47432 36.9531 6.91281 36.9605C8.80517 36.9605 10.0761 35.5639 10.0761 33.469C10.0761 32.1632 9.27652 31.2799 8.43159 30.3442C7.4086 29.2129 6.33672 28.0398 6.33672 25.8681C6.33672 23.2356 7.92882 20.7427 8.9972 19.3671C8.9972 23.871 12.0208 25.7634 13.7805 26.1405L14.4788 26.2941L14.374 25.5958C14.374 25.5539 13.791 21.1861 17.2335 16.9056C17.6665 16.3679 18.1238 15.8232 18.5812 15.2786C20.9868 12.4121 23.4693 9.45135 23.4693 6.30905C23.4584 4.52927 23.0866 2.77019 22.3764 1.13821C29.8202 5.22321 29.7085 10.9143 28.9299 14.0321C28.7309 14.8352 27.8091 18.9376 29.3419 20.9033C29.612 21.2466 29.96 21.5207 30.357 21.7028C30.7541 21.885 31.1888 21.97 31.6253 21.9507C33.2383 21.9507 34.5302 20.9696 35.3576 19.1122C35.5957 18.5671 35.7839 18.0014 35.9198 17.4223C39.5474 21.5248 38.6361 25.2571 37.1697 27.7221C35.8255 29.9776 35.4449 32.2924 36.1991 33.6226C36.4158 33.9999 36.7346 34.3084 37.1187 34.5128C37.5028 34.7172 37.9367 34.8092 38.3707 34.7783C38.7767 34.7858 39.1795 34.7048 39.5509 34.5408C39.9223 34.3768 40.2536 34.1337 40.5215 33.8286C41.6876 32.5333 41.9181 30.1591 41.9181 28.56C43.381 30.6025 45.1686 33.7448 45.1686 38.151C45.1686 41.6425 43.8942 46.9844 40.326 51.5093C37.5084 55.0881 32.2083 59.3546 23.0014 59.3546Z" fill="#F24E1E"/>
<path d="M44.3414 29.9741C44.4009 30.6287 44.4208 31.2863 44.4007 31.9432C43.7252 30.3964 42.8597 28.9397 41.824 27.6069C42.1732 25.299 41.6425 22.3976 38.5875 19.3601C38.5409 19.7261 38.4709 20.0888 38.378 20.4459C37.748 18.9032 36.7957 17.5128 35.5848 16.3679C35.5848 16.3679 35.0716 21.0744 31.9782 21.4305C31.8889 19.9899 32.0267 18.5442 32.3867 17.1465C32.8615 15.2471 33.8251 9.58751 27.7605 5.08355C26.5001 3.28545 24.4401 1.50132 21.2315 0C22.3546 1.9144 22.9643 4.08636 23.0016 6.30555C23.0016 9.84239 19.5346 13.2884 16.8707 16.5844C13.2396 21.1023 13.9099 25.6621 13.9099 25.6621C13.6291 25.5931 13.3555 25.4972 13.0929 25.3758C12.6076 24.2725 12.3562 22.8236 12.6111 20.9068C11.8854 21.6692 11.2375 22.5019 10.6768 23.3927C9.84937 22.2231 9.28026 20.4808 9.62941 17.8972C9.62941 17.8972 5.87261 21.6609 5.87261 25.8611C5.87261 30.0614 9.591 30.9342 9.591 33.476C9.591 35.3334 8.50516 36.4786 6.92703 36.4786H6.90259C6.4571 34.9376 6.33 33.322 6.52901 31.7303C5.67623 32.6394 4.98964 33.6912 4.50047 34.8377C3.64507 33.3852 3.27149 31.1262 3.53684 28.7346C3.53684 28.7346 0 32.0689 0 39.2578C0 43.6431 2.22405 50.3467 7.82782 54.9065C11.4275 59.3162 17.2547 62.846 25.9833 62.846C43.0146 62.846 48.6533 48.6533 48.6533 41.1432C48.6638 35.6128 45.8986 31.9642 44.3414 29.9741ZM39.9282 51.2021C37.1734 54.6935 32.0026 58.8553 22.9912 58.8553C6.3684 58.8553 0.995062 45.6507 0.995062 39.2578C0.952154 36.733 1.48843 34.232 2.56272 31.9467C2.78967 33.6925 3.37972 35.2217 4.25956 36.2063C4.58598 36.598 4.99354 36.9142 5.45408 37.133C5.91462 37.3518 6.41718 37.4681 6.92703 37.4737C9.08125 37.4737 10.5861 35.8292 10.5861 33.476C10.5861 31.9782 9.68527 30.9796 8.81241 30.016C7.80687 28.9057 6.86069 27.8548 6.86069 25.8751C6.86069 23.9827 7.74403 22.1497 8.62387 20.7985C8.79986 22.1642 9.37568 23.4474 10.279 24.4867C11.1822 25.5261 12.3726 26.2751 13.7004 26.6397L15.097 26.933L14.9015 25.5364C14.8154 24.6569 14.8531 23.7695 15.0132 22.9004C15.393 20.8109 16.3004 18.8532 17.6493 17.2128C18.0787 16.6786 18.5431 16.1235 18.9935 15.5928C21.4549 12.66 23.9967 9.62592 23.9967 6.30555C23.9902 4.94355 23.7699 3.59102 23.3438 2.29737C29.2793 6.13796 29.1501 11.1063 28.4483 13.9134C28.1515 15.097 27.3136 19.1157 28.9476 21.2105C29.2651 21.6131 29.673 21.9351 30.1383 22.1505C30.6036 22.3659 31.1131 22.4685 31.6255 22.45C32.8999 22.45 34.6596 21.9053 35.8153 19.3077C35.9399 19.0338 36.0483 18.7529 36.14 18.4663C38.8668 22.0625 38.0393 25.2885 36.744 27.4602C35.2881 29.9042 34.9145 32.3483 35.7699 33.8601C36.0336 34.3098 36.4163 34.6782 36.8758 34.9246C37.3353 35.171 37.8539 35.2859 38.3745 35.2566C38.8503 35.2628 39.3219 35.1661 39.7569 34.9733C40.192 34.7805 40.5803 34.496 40.8953 34.1394C41.8205 33.1129 42.2116 31.5208 42.3547 30.0858C43.8667 32.4918 44.6712 35.2745 44.6766 38.1161C44.6905 41.5482 43.4301 46.7854 39.9387 51.2021H39.9282Z" fill="black"/>
</g>
<defs>
<clipPath id="clip0_5_2201">
<rect width="48.6638" height="62.846" fill="white"/>
</clipPath>
</defs>
</svg>
