<svg width="63" height="63" viewBox="0 0 63 63" fill="none" xmlns="http://www.w3.org/2000/svg">
<g clip-path="url(#clip0_5_2207)">
<path d="M34.38 44.3313C46.5006 44.3313 56.3264 34.505 56.3264 22.3836C56.3264 10.2623 46.5006 0.436035 34.38 0.436035C22.2593 0.436035 12.4336 10.2623 12.4336 22.3836C12.4336 34.505 22.2593 44.3313 34.38 44.3313Z" fill="#FFC701"/>
<path d="M34.3795 37.4585C30.6243 37.4608 27.0035 36.0615 24.2257 33.5347C21.4478 31.0078 19.7128 27.5352 19.3604 23.7964L20.2272 23.7155C20.5624 27.2372 22.1984 30.5075 24.8156 32.8876C27.4328 35.2676 30.8433 36.5865 34.3808 36.5865C37.9183 36.5865 41.3287 35.2676 43.9459 32.8876C46.5631 30.5075 48.1991 27.2372 48.5343 23.7155L49.4012 23.7964C49.0487 27.5356 47.3133 31.0086 44.5349 33.5355C41.7565 36.0625 38.135 37.4614 34.3795 37.4585Z" fill="black"/>
<path d="M14.8856 17.3387C14.0251 16.8167 13.3389 16.0511 12.9137 15.1389C12.4886 14.2267 12.3435 13.2088 12.497 12.2141C12.6505 11.2194 13.0955 10.2926 13.7759 9.55102C14.4563 8.8094 15.3413 8.28628 16.3191 8.04787C16.7165 7.95107 17.1241 7.90198 17.5332 7.90164C18.4625 7.90242 19.3737 8.15801 20.1678 8.64063L21.9068 9.68513L22.9513 7.94604C23.6535 6.79052 24.7859 5.96129 26.0995 5.64078C26.7499 5.48208 27.4252 5.45305 28.0868 5.55534C28.7485 5.65764 29.3835 5.88925 29.9556 6.23697C30.5277 6.58468 31.0257 7.04169 31.4213 7.58189C31.8168 8.12209 32.102 8.73491 32.2607 9.38536C32.4194 10.0358 32.4484 10.7111 32.3461 11.3728C32.2439 12.0345 32.0123 12.6695 31.6646 13.2417L30.8342 14.623L25.3169 23.6815L14.8856 17.3387Z" fill="#F24E1E"/>
<path d="M37.9283 14.623L37.0979 13.2547C36.4247 12.1017 36.2314 10.7303 36.5595 9.43597C36.8876 8.14167 37.7109 7.02805 38.8522 6.33499C39.9934 5.64194 41.3612 5.4249 42.6609 5.73063C43.9606 6.03637 45.0882 6.84041 45.8008 7.96956L46.8452 9.70865L48.5842 8.66415C49.3782 8.18129 50.2895 7.92567 51.2188 7.92517C51.6279 7.9255 52.0355 7.97459 52.433 8.0714C53.4108 8.30981 54.2958 8.83292 54.9762 9.57455C55.6565 10.3162 56.1016 11.243 56.2551 12.2376C56.4085 13.2323 56.2635 14.2502 55.8383 15.1624C55.4131 16.0746 54.7269 16.8402 53.8665 17.3622L43.4221 23.705L37.9283 14.623Z" fill="#F24E1E"/>
<path d="M58.0838 18.2788C58.5075 17.6396 58.7933 16.919 58.9228 16.1631C59.0523 15.4071 59.0228 14.6325 58.836 13.8887C58.6493 13.1448 58.3094 12.4481 57.8382 11.843C57.367 11.2379 56.7748 10.7378 56.0994 10.3745C56.0524 10.291 56.008 10.2074 55.9584 10.1134C55.5819 9.49307 55.0866 8.9532 54.501 8.5248C53.9153 8.0964 53.2508 7.78792 52.5456 7.61705C52.1183 7.51255 51.68 7.45908 51.2401 7.45777H51.0651C48.9689 5.10844 46.4 3.22862 43.5266 1.9415C40.6532 0.654376 37.5403 -0.0109863 34.3919 -0.0109863C31.2434 -0.0109863 28.1305 0.654376 25.2572 1.9415C22.3838 3.22862 19.8148 5.10844 17.7186 7.45777H17.5437C17.0994 7.45827 16.6567 7.51174 16.2251 7.61705C15.3627 7.82618 14.5634 8.23985 13.8946 8.8231C13.2258 9.40636 12.7073 10.1421 12.3828 10.968C12.0583 11.794 11.9375 12.6859 12.0304 13.5684C12.1234 14.4509 12.4274 15.2981 12.9168 16.0384C11.699 20.1609 11.6949 24.5471 12.9049 28.6719C14.115 32.7967 16.4878 36.4855 19.7396 39.2968C23.0908 43.1518 27.66 45.7441 32.6881 46.6429C37.7162 47.5418 42.9005 46.6931 47.3796 44.2379C51.8587 41.7828 55.363 37.8689 57.3103 33.1465C59.2575 28.4242 59.5305 23.1777 58.0838 18.2788ZM50.6865 8.36909C50.8666 8.34599 51.0481 8.33465 51.2296 8.33515C51.4279 8.33519 51.6259 8.34828 51.8224 8.37432C51.9985 8.39442 52.1729 8.4267 52.3446 8.47093C53.0084 8.63237 53.6285 8.93825 54.1606 9.36679C54.6927 9.79532 55.1237 10.336 55.4229 10.9502C55.7221 11.5644 55.8822 12.237 55.8917 12.9202C55.9012 13.6033 55.7599 14.2802 55.4779 14.9025C55.3252 15.2505 55.1277 15.577 54.8904 15.8738C54.5465 16.312 54.1264 16.6844 53.6501 16.9732L52.2845 17.8036L43.5947 23.0835L38.2994 14.3854L37.4717 13.0145C37.1366 12.4921 36.9094 11.908 36.8034 11.2965C36.6975 10.6849 36.7149 10.0584 36.8547 9.45371C36.9946 8.84903 37.2539 8.27843 37.6175 7.77549C37.9812 7.27256 38.4417 6.84745 38.9721 6.5252C39.5025 6.20294 40.092 5.99005 40.7059 5.89905C41.3198 5.80805 41.9457 5.84079 42.5467 5.99533C43.1478 6.14987 43.7119 6.42309 44.2057 6.79891C44.6996 7.17474 45.1133 7.64557 45.4225 8.1837L46.2529 9.54938L46.7046 10.2936L47.4487 9.84184L48.817 9.01146C49.3865 8.66485 50.0243 8.44571 50.6865 8.36909ZM13.5487 10.573C13.865 10.0503 14.2816 9.59551 14.7746 9.23472C15.2676 8.87394 15.8271 8.61435 16.4209 8.47093C16.5926 8.42683 16.7671 8.39455 16.9431 8.37432C17.1405 8.34828 17.3394 8.33519 17.5385 8.33515C17.72 8.33474 17.9015 8.34608 18.0816 8.36909C18.7429 8.44607 19.3798 8.66521 19.9485 9.01146L21.3141 9.84184L22.0583 10.2936L22.51 9.54938L23.3404 8.1837C23.9809 7.1286 25.0144 6.3712 26.2134 6.07811C26.807 5.93298 27.4235 5.90622 28.0275 5.99935C28.6315 6.09247 29.2113 6.30366 29.7337 6.62086C30.2561 6.93806 30.7109 7.35505 31.0721 7.84802C31.4334 8.341 31.694 8.90031 31.8391 9.49402C31.9843 10.0877 32.011 10.7042 31.9179 11.3082C31.8248 11.9123 31.6136 12.4921 31.2964 13.0145L30.4687 14.3828L25.1786 23.0835L16.4784 17.7983L15.1101 16.9732C14.6379 16.6831 14.2206 16.3118 13.8777 15.8765C13.6404 15.5782 13.4421 15.2509 13.2876 14.9025C12.9761 14.2139 12.837 13.4598 12.8825 12.7054C12.928 11.951 13.1567 11.2191 13.5487 10.573ZM13.5905 16.8687C13.9106 17.1925 14.2693 17.4757 14.6584 17.7122L16.0266 18.5399L25.4736 24.2847L31.2181 14.845L32.0484 13.4741C32.8102 12.2213 33.0431 10.7171 32.6959 9.29259C32.3487 7.86804 31.4499 6.63976 30.1971 5.87796C28.9444 5.11615 27.4403 4.88323 26.0159 5.23043C24.5914 5.57764 23.3632 6.47652 22.6014 7.72934L21.7711 9.09764L20.4055 8.26465C19.9008 7.9588 19.3509 7.73493 18.7761 7.60139C20.783 5.4745 23.2031 3.78003 25.8881 2.62189C28.5732 1.46375 31.4665 0.866364 34.3906 0.866364C37.3147 0.866364 40.208 1.46375 42.893 2.62189C45.5781 3.78003 47.9982 5.4745 50.005 7.60139C49.4312 7.7354 48.8822 7.95925 48.3783 8.26465L47.0127 9.09764L46.1824 7.72934C45.8052 7.10918 45.3095 6.56938 44.7238 6.14078C44.138 5.71217 43.4735 5.40315 42.7683 5.23136C42.0631 5.05956 41.3309 5.02836 40.6137 5.13953C39.8964 5.25069 39.2081 5.50206 38.5879 5.87926C37.9678 6.25647 37.4281 6.75213 36.9995 7.33795C36.5709 7.92377 36.2619 8.58827 36.0901 9.29352C35.9183 9.99876 35.8871 10.7309 35.9983 11.4482C36.1094 12.1656 36.3608 12.8539 36.738 13.4741L37.5657 14.845L43.3101 24.2847L52.7336 18.5399L54.1019 17.7122C54.4919 17.4771 54.8507 17.1937 55.1698 16.8687C55.9553 19.8265 56.1007 22.9179 55.5962 25.9364C55.0917 28.9548 53.9491 31.8309 52.2445 34.3725C50.54 36.9141 48.3128 39.0628 45.7117 40.6749C43.1105 42.2871 40.1954 43.3257 37.1609 43.7213C34.1264 44.1169 31.0425 43.8605 28.115 42.9691C25.1875 42.0778 22.4839 40.572 20.1847 38.5524C17.8856 36.5328 16.0438 34.0458 14.7823 31.2576C13.5209 28.4693 12.8689 25.444 12.8698 22.3837C12.8684 20.5218 13.1106 18.6677 13.5905 16.8687Z" fill="black"/>
</g>
<defs>
<clipPath id="clip0_5_2207">
<rect width="47" height="47" fill="white" transform="translate(12)"/>
</clipPath>
</defs>
</svg>
