<svg width="63" height="56" viewBox="0 0 63 56" fill="none" xmlns="http://www.w3.org/2000/svg">
<g clip-path="url(#clip0_5_1964)">
<path d="M12.457 27.1975C10.4674 25.2362 9.34961 22.5761 9.34961 19.8024C9.34961 17.0286 10.4674 14.3685 12.457 12.4072C14.4467 10.4458 17.1452 9.34399 19.959 9.34399C22.7728 9.34399 25.4714 10.4458 27.461 12.4072L29.9519 14.8626L32.4404 12.4072C34.43 10.4449 37.129 9.34211 39.9434 9.34143C42.7579 9.34075 45.4574 10.4422 47.448 12.4036C49.4387 14.3649 50.5574 17.0254 50.5581 19.7998C50.5588 22.5742 49.4414 25.2353 47.4517 27.1975L45.2077 29.4144L29.9568 44.4481L12.457 27.1975Z" fill="#F24E1E"/>
<path d="M49.793 14.2289C49.4414 13.8831 49.0666 13.5611 48.671 13.265C47.7242 12.0373 46.5218 11.0235 45.1446 10.2918C43.7674 9.56014 42.2473 9.1275 40.6864 9.02295C39.1255 8.91841 37.56 9.1444 36.095 9.68573C34.63 10.2271 33.2996 11.0712 32.193 12.1614L29.9515 14.3735L27.7075 12.1614C25.6523 10.1356 22.865 8.99744 19.9586 8.99744C17.0522 8.99744 14.2648 10.1356 12.2097 12.1614C10.1546 14.1873 9 16.935 9 19.8C9 22.665 10.1546 25.4127 12.2097 27.4385L14.4537 29.6506L15.5464 30.7301L16.5486 31.7156L23.4688 38.5421L29.9564 44.9349L32.0537 47L47.549 31.7229L49.793 29.506C51.8464 27.4792 52.9997 24.7319 52.9997 21.8675C52.9997 19.003 51.8464 16.2557 49.793 14.2289ZM12.7035 12.6506C14.6285 10.7554 17.2379 9.69082 19.9586 9.69082C22.6793 9.69082 25.2887 10.7554 27.2137 12.6506L29.4577 14.8626L29.9466 15.3446L30.4355 14.8626L32.677 12.6506C34.6188 10.8376 37.2016 9.84305 39.8759 9.87868C42.5502 9.91431 45.1048 10.9773 46.9962 12.8414C48.8875 14.7055 49.9663 17.2235 50.0029 19.8598C50.0395 22.496 49.031 25.0422 47.1921 26.9566L44.9506 29.1711L29.9564 43.9614L14.9475 29.1662L12.7035 26.9542C10.7809 25.0566 9.70095 22.4843 9.70095 19.8024C9.70095 17.1205 10.7809 14.5482 12.7035 12.6506Z" fill="black"/>
</g>
<defs>
<clipPath id="clip0_5_1964">
<rect width="44" height="38" fill="white" transform="translate(9 9)"/>
</clipPath>
</defs>
</svg>
