<svg width="73" height="41" viewBox="0 0 73 41" fill="none" xmlns="http://www.w3.org/2000/svg">
<g clip-path="url(#clip0_5_1958)">
<path d="M30.5663 18.3715C28.6555 16.4595 27.582 13.8662 27.582 11.1621C27.582 8.45807 28.6555 5.86477 30.5663 3.95272C32.4771 2.04067 35.0687 0.966493 37.771 0.966493C40.4733 0.966493 43.0649 2.04067 44.9757 3.95272L47.9403 6.91927L50.9009 3.95272C52.8117 2.0396 55.4037 0.964385 58.1067 0.963623C60.8098 0.962862 63.4024 2.03661 65.3143 3.94866C67.2262 5.86071 68.3007 8.45444 68.3015 11.1592C68.3022 13.8641 67.2292 16.4584 65.3184 18.3715L63.0351 20.6603L47.9444 35.7609L30.5663 18.3715Z" fill="#F24E1E"/>
<path d="M68.2992 11.164C68.3021 12.5028 68.0402 13.8288 67.5287 15.0658C67.0171 16.3028 66.2659 17.4263 65.3184 18.3714L63.031 20.6643L47.9484 35.7649L30.5663 18.3714C28.6555 16.4594 27.582 13.8661 27.582 11.162C27.582 8.45797 28.6555 5.86467 30.5663 3.95262C32.4771 2.04057 35.0687 0.966391 37.771 0.966391C40.4733 0.966391 43.0649 2.04057 44.9757 3.95262L47.9363 6.91511L50.9049 3.95262C51.8513 3.00557 52.9748 2.25433 54.2114 1.74179C55.4479 1.22926 56.7732 0.965454 58.1116 0.965454C59.4501 0.965454 60.7754 1.22926 62.0119 1.74179C63.2485 2.25433 64.372 3.00557 65.3184 3.95262C65.4806 4.11495 65.6388 4.28539 65.7848 4.45989C67.4123 6.31276 68.3066 8.69718 68.2992 11.164Z" fill="#F24E1E"/>
<path d="M69.7556 7.00854C69.1241 6.38714 68.4217 5.84229 67.6629 5.38526C67.2087 4.62301 66.664 3.91853 66.0407 3.28717C65.005 2.25031 63.7753 1.4278 62.4218 0.866627C61.0683 0.305454 59.6177 0.0166176 58.1526 0.0166176C56.6876 0.0166176 55.2369 0.305454 53.8834 0.866627C52.53 1.4278 51.3003 2.25031 50.2646 3.28717L47.9367 5.55977L45.6574 3.27094C44.6221 2.2342 43.3927 1.41178 42.0396 0.850661C40.6865 0.289543 39.2361 0.000732422 37.7714 0.000732422C36.3067 0.000732422 34.8563 0.289543 33.5032 0.850661C32.1501 1.41178 30.9207 2.2342 29.8854 3.27094C29.5513 3.60052 29.2422 3.95457 28.9607 4.33013C27.3101 3.39674 25.4364 2.5567 23.0802 2.5567C20.2778 2.5567 18.5461 3.70111 16.8508 4.82117C15.3057 5.83978 13.8335 6.79346 11.5421 6.79346C9.25072 6.79346 7.77044 5.83978 6.22122 4.82117C4.53006 3.70111 2.78211 2.5567 0 2.5567V4.46405C2.20622 4.46405 3.577 5.36903 5.16272 6.40387C6.74844 7.43871 8.66672 8.70487 11.5421 8.70487C14.4175 8.70487 16.2709 7.48741 17.9134 6.40387C19.5559 5.32033 20.8739 4.46405 23.0802 4.46405C24.9376 4.46405 26.4706 5.1296 27.9103 5.93312C27.2884 7.10622 26.8831 8.382 26.7139 9.69913C25.552 9.23866 24.3137 9.00184 23.0639 9.00112C20.2778 9.00112 18.5298 10.1496 16.8346 11.2615C15.2894 12.2761 13.8173 13.2419 11.5259 13.2419C9.2345 13.2419 7.75422 12.2761 6.205 11.2615C4.53006 10.1658 2.78211 9.01735 0 9.01735V10.9572C2.20622 10.9572 3.577 11.8581 5.16272 12.897C6.74844 13.9359 8.66672 15.198 11.5421 15.198C14.4175 15.198 16.2709 13.9805 17.9134 12.897C19.5559 11.8135 20.8739 10.9572 23.0802 10.9572C24.3115 10.9696 25.5258 11.2464 26.6409 11.7688C26.7315 13.5515 27.2504 15.2861 28.1537 16.8253C26.5986 15.967 24.856 15.5056 23.0802 15.4821C20.2778 15.478 18.5461 16.6387 16.8508 17.7425C15.3057 18.757 13.8335 19.7229 11.5421 19.7229C9.25072 19.7229 7.77044 18.757 6.22122 17.7425C4.53006 16.6387 2.78211 15.478 0 15.478V17.4097C2.20622 17.4097 3.577 18.3106 5.16272 19.3495C6.74844 20.3884 8.66672 21.6465 11.5421 21.6465C14.4175 21.6465 16.2709 20.429 17.9134 19.3495C19.5559 18.2701 20.8739 17.4097 23.0802 17.4097C25.5135 17.4097 27.3628 18.5257 29.1635 19.6093C30.0299 20.1604 30.9369 20.6447 31.8767 21.058L31.9213 21.1027L36.5771 25.7534C35.957 26.0229 35.2901 26.1677 34.6142 26.1795C33.1096 26.1795 31.7469 25.3678 30.1531 24.4223C28.2186 23.2616 26.0245 21.9387 23.0761 21.9387C20.2899 21.9387 18.542 23.0912 16.8468 24.2031C15.3016 25.2217 13.8294 26.1795 11.5381 26.1795C9.24667 26.1795 7.76639 25.2217 6.21717 24.2031C4.53006 23.0912 2.78211 21.9387 0 21.9387V23.8622C2.20622 23.8622 3.577 24.7713 5.16272 25.8061C6.74844 26.841 8.66672 28.1071 11.5421 28.1071C14.4175 28.1071 16.2709 26.8897 17.9134 25.8061C19.5559 24.7226 20.8739 23.8622 23.0802 23.8622C25.5135 23.8622 27.3628 24.9904 29.1635 26.0699C30.8384 27.0682 32.5621 28.099 34.602 28.099C35.8009 28.0685 36.976 27.7571 38.033 27.19L40.3163 29.4747L40.7218 29.8806C40.1378 30.193 39.5822 30.5258 39.0509 30.8424C37.4693 31.792 36.1066 32.6077 34.5898 32.6077C33.0731 32.6077 31.7226 31.796 30.1287 30.8424C28.2226 29.7182 26.0286 28.4074 23.0802 28.4074C20.2778 28.4074 18.5461 29.5559 16.8508 30.6638C15.3057 31.6824 13.8335 32.6442 11.5421 32.6442C9.25072 32.6442 7.77044 31.6824 6.22122 30.6638C4.53006 29.5559 2.78211 28.4074 0 28.4074V30.331C2.20622 30.331 3.577 31.2319 5.16272 32.2749C6.74844 33.3179 8.66672 34.5759 11.5421 34.5759C14.4175 34.5759 16.2709 33.3584 17.9134 32.2749C19.5559 31.1914 20.8739 30.331 23.0802 30.331C25.5135 30.331 27.3628 31.4551 29.1635 32.5387C30.8384 33.537 32.5621 34.5678 34.602 34.5678C36.6419 34.5678 38.3737 33.5289 40.0527 32.5387C40.734 32.1329 41.4275 31.727 42.1575 31.3496L42.194 31.3821L45.6493 34.8478C43.1471 34.9695 41.5005 36.0653 39.9107 37.096C38.3209 38.1268 36.9056 39.0724 34.6142 39.0724C33.1096 39.0724 31.7469 38.2607 30.1531 37.3071C28.2186 36.1464 26.0245 34.8316 23.0761 34.8316C20.2899 34.8316 18.542 35.9841 16.8468 37.092C15.3016 38.1106 13.8294 39.0724 11.5381 39.0724C9.24667 39.0724 7.76639 38.1106 6.21717 37.092C4.53006 35.9841 2.78211 34.8316 0 34.8316V36.7551C2.20622 36.7551 3.577 37.6601 5.16272 38.699C6.74844 39.7379 8.66672 40.9879 11.5421 40.9879C14.4175 40.9879 16.2709 39.7704 17.9134 38.6869C19.5559 37.6033 20.8739 36.743 23.0802 36.743C25.5135 36.743 27.3628 37.8671 29.1635 38.9506C30.8384 39.949 32.5621 40.9797 34.602 40.9797C37.4733 40.9797 39.3308 39.7623 40.9692 38.6787C42.6077 37.5952 43.9338 36.7349 46.136 36.7349C46.6733 36.7356 47.209 36.7941 47.7339 36.9094L47.9286 37.1042L51.6678 40.8418L67.4561 25.0797L69.7556 22.7909C71.846 20.6975 73.0203 17.8591 73.0203 14.8997C73.0203 11.9403 71.846 9.10197 69.7556 7.00854ZM28.7093 12.8726C28.3277 10.8499 28.6317 8.75763 29.5731 6.92738C29.8687 6.35099 30.2234 5.80697 30.6316 5.3041C30.8241 5.06287 31.0313 4.83381 31.2521 4.61826C32.9832 2.89049 35.3284 1.92022 37.7734 1.92022C40.2184 1.92022 42.5637 2.89049 44.2948 4.61826L46.5781 6.89897L47.9367 8.25847L49.2993 6.89897L51.5826 4.6142C53.3206 2.91741 55.6567 1.97421 58.0848 1.98897C60.5129 2.00374 62.8374 2.97528 64.5546 4.69309C66.2718 6.41089 67.2434 8.7366 67.2589 11.1663C67.2745 13.5959 66.3326 15.9339 64.6374 17.6735L62.3582 19.9623L47.9448 34.4014L42.6077 29.0608L39.7688 26.2201L39.0388 25.4855L34.5777 21.0215L33.4989 19.9339L32.9311 19.3698L31.2197 17.6491C29.9233 16.3448 29.0486 14.6806 28.7093 12.8726Z" fill="black"/>
<path d="M42.8303 14.297C43.8741 14.297 44.7202 13.4503 44.7202 12.4059C44.7202 11.3615 43.8741 10.5148 42.8303 10.5148C41.7866 10.5148 40.9404 11.3615 40.9404 12.4059C40.9404 13.4503 41.7866 14.297 42.8303 14.297Z" fill="black"/>
<path d="M53.0588 14.297C54.1026 14.297 54.9487 13.4503 54.9487 12.4059C54.9487 11.3615 54.1026 10.5148 53.0588 10.5148C52.0151 10.5148 51.1689 11.3615 51.1689 12.4059C51.1689 13.4503 52.0151 14.297 53.0588 14.297Z" fill="black"/>
<path d="M47.9448 25.0594C45.6191 25.0706 43.362 24.2711 41.5614 22.7981C39.7608 21.3251 38.529 19.2706 38.0776 16.9876C38.0509 16.8544 38.0523 16.7172 38.0818 16.5846C38.1112 16.452 38.1681 16.327 38.2487 16.2177C38.3293 16.1084 38.4318 16.0172 38.5497 15.9499C38.6676 15.8826 38.7983 15.8407 38.9334 15.827C39.178 15.8071 39.4213 15.8792 39.6155 16.0294C39.8098 16.1795 39.9411 16.3967 39.9837 16.6386C40.3619 18.4669 41.3583 20.1088 42.8052 21.2877C44.252 22.4665 46.0607 23.1102 47.9265 23.1102C49.7923 23.1102 51.6011 22.4665 53.0479 21.2877C54.4948 20.1088 55.4912 18.4669 55.8694 16.6386C55.912 16.3967 56.0433 16.1795 56.2376 16.0294C56.4318 15.8792 56.6751 15.8071 56.9197 15.827C57.0548 15.8395 57.1859 15.8799 57.3046 15.9457C57.4233 16.0114 57.5271 16.1011 57.6094 16.209C57.6917 16.3169 57.7508 16.4408 57.7828 16.5727C57.8149 16.7046 57.8193 16.8417 57.7957 16.9754C57.346 19.2573 56.1172 21.3115 54.32 22.7864C52.5228 24.2612 50.269 25.0647 47.9448 25.0594Z" fill="black"/>
</g>
<defs>
<clipPath id="clip0_5_1958">
<rect width="73" height="41" fill="white"/>
</clipPath>
</defs>
</svg>
