<svg width="64" height="64" viewBox="0 0 64 64" fill="none" xmlns="http://www.w3.org/2000/svg">
<g clip-path="url(#clip0_5_2171)">
<path d="M63.7085 37.4278V40.5244H62.7069H62.2928C61.7399 40.4924 61.186 40.5673 60.6611 40.7451L60.201 40.9586L60.1656 41.0405C59.9946 41.6804 59.9031 42.3391 59.8931 43.0017C59.8719 43.4359 59.8719 43.8773 59.8931 44.2973V45.301V55.4735H3.07227V39.3925C3.18443 32.8378 5.54502 26.5233 9.75457 21.5177C9.74299 21.4671 9.72882 21.4172 9.7121 21.3682L9.67317 21.2471L9.24844 21.0549C8.69564 20.8592 8.11001 20.7746 7.52478 20.8058H7.20977C7.20977 20.8058 7.48584 17.7555 7.62388 17.7555C8.1771 17.7885 8.7314 17.7123 9.25552 17.5312L9.72272 17.3177L9.74749 17.2394C10.0306 16.3139 13.078 13.9755 13.078 13.9755C13.078 15.2105 13.078 16.3851 13.3364 17.2429L13.3753 17.3639L13.8001 17.5668C17.4929 14.607 21.8617 12.6203 26.5107 11.7867C31.1597 10.9531 35.942 11.2989 40.4246 12.7928C44.9071 14.2867 48.9483 16.8815 52.1821 20.3422C55.416 23.8028 57.7403 28.0201 58.9445 32.612H60.6364V37.1893H60.6682C61.2185 37.3904 61.8038 37.4764 62.3883 37.442H62.7034L63.7085 37.4278Z" fill="black"/>
<path d="M56.3108 36.8013H50.6124C50.6124 30.8806 48.2736 25.2024 44.1105 21.0158C39.9474 16.8292 34.3011 14.4773 28.4136 14.4773C22.5261 14.4773 16.8797 16.8292 12.7166 21.0158C8.55352 25.2024 6.21472 30.8806 6.21472 36.8013H0.495117C0.495117 29.3579 3.4354 22.2194 8.66913 16.9562C13.9029 11.6929 21.0013 8.73608 28.4029 8.73608C35.8046 8.73608 42.903 11.6929 48.1368 16.9562C53.3705 22.2194 56.3108 29.3579 56.3108 36.8013Z" fill="#F24E1E"/>
<path d="M50.6124 36.8012H44.8928C44.8928 32.4031 43.1555 28.1852 40.063 25.0753C36.9706 21.9655 32.7763 20.2183 28.4029 20.2183C24.0296 20.2183 19.8353 21.9655 16.7429 25.0753C13.6504 28.1852 11.9131 32.4031 11.9131 36.8012H6.2041C6.2041 30.8805 8.5429 25.2023 12.706 21.0157C16.8691 16.8292 22.5154 14.4772 28.4029 14.4772C34.2904 14.4772 39.9368 16.8292 44.0999 21.0157C48.263 25.2023 50.6018 30.8805 50.6018 36.8012H50.6124Z" fill="#FFC700"/>
<path d="M44.8928 36.8013H39.1803C39.2062 35.3613 38.9466 33.9305 38.4166 32.5925C37.8865 31.2545 37.0967 30.0361 36.0932 29.0085C35.0897 27.9808 33.8926 27.1646 32.5719 26.6074C31.2512 26.0502 29.8334 25.7632 28.4012 25.7632C26.969 25.7632 25.5511 26.0502 24.2304 26.6074C22.9097 27.1646 21.7127 27.9808 20.7092 29.0085C19.7057 30.0361 18.9158 31.2545 18.3858 32.5925C17.8557 33.9305 17.5961 35.3613 17.6221 36.8013H11.9131C11.9131 32.4033 13.6504 28.1854 16.7429 25.0755C19.8353 21.9656 24.0296 20.2185 28.4029 20.2185C32.7763 20.2185 36.9706 21.9656 40.063 25.0755C43.1555 28.1854 44.8928 32.4033 44.8928 36.8013Z" fill="#A259FF"/>
<path d="M56.322 36.8015H0.492188V51.8859H56.322V36.8015Z" fill="#C7B9FF"/>
<path d="M7.38636 22.0477V21.5458C7.40406 20.2253 7.38636 19.0543 7.10321 18.1253L7.00411 17.805L6.37056 17.4953C5.75664 17.2665 5.10244 17.1671 4.44869 17.2035H4.12661H3.62402V15.132H4.12307H4.5478C5.17194 15.1665 5.79662 15.0745 6.38472 14.8615L7.04304 14.5625L7.14214 14.2671C7.41358 13.1511 7.51855 12.0007 7.45361 10.8537V10.3518H9.52059V10.8537C9.52059 12.1742 9.52059 13.3452 9.80374 14.2742L9.90638 14.5945L10.5399 14.9042C11.1538 15.1333 11.808 15.2327 12.4618 15.196H12.7839H13.2865V17.2818H12.7874H12.3627C11.7385 17.247 11.1138 17.339 10.5258 17.5523L9.85329 17.8513L9.75773 18.1467C9.45334 19.122 9.42857 20.3642 9.44273 21.5601V22.0619L7.38636 22.0477Z" fill="white"/>
<path d="M4.87012 48.9884V39.6951H8.76341L9.91016 43.2793C10.1615 44.1549 10.2287 45.2832 10.2287 47.1945H11.0463C11.0463 45.2654 11.1383 44.1371 11.4002 43.2793L12.5647 39.6951H16.281V48.9884H13.8636V46.294C13.9181 44.5068 14.2884 42.7435 14.9573 41.0868L14.1149 40.7949L11.5772 48.9813H9.55622L7.0362 40.7949L6.1903 41.0725C6.85552 42.73 7.22225 44.4932 7.27334 46.2798V48.9742L4.87012 48.9884Z" fill="black"/>
<path d="M24.5211 48.9885L23.8981 47.038H20.4402L19.7925 48.9743H17.2441L20.5853 39.6809H23.8875L27.2287 48.9743L24.5211 48.9885ZM21.0596 45.1373H23.2929L22.854 43.7563C22.6405 42.8499 22.5606 41.9169 22.6169 40.9872H21.7851C21.8379 41.9241 21.7496 42.8637 21.5232 43.7741L21.0596 45.1373Z" fill="black"/>
<path d="M27.4512 44.3934C27.4512 41.6207 29.4332 39.4673 32.4806 39.4673C35.2024 39.4673 36.5367 40.8625 37.0004 42.2685L34.5688 43.1227C34.2786 42.2329 33.684 41.4641 32.4452 41.4641C31.0295 41.4641 30.0561 42.5532 30.0561 44.4112C30.0561 46.3368 31.0861 47.3334 32.4346 47.3334C33.7017 47.3334 34.36 46.6215 34.4945 45.9096H31.9391V44.0624H36.9331V48.9742H34.7139C34.7815 48.3057 35.0086 47.6634 35.3758 47.102H34.4379C34.2007 47.7534 33.5389 49.202 31.6064 49.202C29.4332 49.2163 27.4512 47.5683 27.4512 44.3934Z" fill="black"/>
<path d="M38.5576 48.9884V39.6951H41.0564V48.9884H38.5576Z" fill="black"/>
<path d="M42.4727 44.3685C42.4727 41.553 44.4653 39.4673 47.4278 39.4673C49.739 39.4673 51.4025 40.6881 51.9298 42.4429L49.5514 43.2651C49.2222 42.151 48.5603 41.4854 47.3994 41.4854C45.9837 41.4854 45.1413 42.5319 45.1413 44.3649C45.1413 46.198 45.9979 47.2124 47.3994 47.2124C48.5356 47.2124 49.2222 46.5325 49.5903 45.4327L51.9546 46.2976C51.321 48.0773 49.7354 49.2447 47.4136 49.2447C44.4087 49.2163 42.4727 47.2515 42.4727 44.3685Z" fill="black"/>
<path d="M36.2182 20.1116V19.6097C36.2649 18.8931 36.2064 18.1736 36.0447 17.4741L36.0058 17.3424L35.6731 17.1787C35.3047 17.046 34.9135 16.9891 34.5228 17.0114H34.3317H33.8291V15.3385L34.3317 15.3599H34.6007C34.9732 15.3826 35.3464 15.3293 35.6979 15.2033L36.0518 15.0467L36.0908 14.9328C36.2563 14.2399 36.3195 13.5263 36.2783 12.815V12.3131H37.9595V12.815C37.9151 13.5315 37.9735 14.2508 38.133 14.9506L38.1754 15.0823L38.5081 15.246C38.8765 15.3787 39.2677 15.4356 39.6584 15.4133H39.8602H40.3628V17.1075H39.8637H39.5947C39.2214 17.0855 38.8474 17.1375 38.494 17.2606L38.14 17.4207L38.1011 17.5346C37.9324 18.233 37.868 18.9528 37.91 19.6702V20.1721L36.2182 20.1116Z" fill="white"/>
<path d="M54.2512 41.6988V41.197C54.2512 39.8729 54.2512 38.7055 53.9645 37.7729L53.8654 37.4526L53.2319 37.1465C52.5759 36.8859 51.8733 36.7647 51.1685 36.7905H50.9879H50.4854V34.7795H50.9844H51.4091C52.033 34.8152 52.6577 34.7244 53.2461 34.5126L53.9044 34.21L54.0035 33.9182C54.2765 32.8025 54.3815 31.6519 54.3149 30.5048V30.0029H56.3819V30.5048C56.3819 31.8253 56.3819 32.9963 56.6651 33.9253L56.7642 34.2456L57.3977 34.5553C58.0116 34.7842 58.6658 34.8835 59.3196 34.8472H59.6417H60.1443V36.9294H59.6452H59.2205C58.5963 36.8931 57.9712 36.9851 57.3836 37.1999L56.7252 37.4988L56.6297 37.7836C56.3253 38.7588 56.3005 40.001 56.3182 41.1934V41.6988H54.2512Z" fill="white"/>
<path d="M59.6311 34.3581H59.3161C58.7307 34.3915 58.1447 34.3068 57.5924 34.109L57.1677 33.9025L57.1323 33.7779C56.8668 32.9237 56.8562 31.7456 56.8704 30.514V29.5139H55.8581C54.6545 24.9233 52.3314 20.707 49.099 17.2469C45.8667 13.7867 41.8272 11.1919 37.3463 9.6974C32.8654 8.20289 28.0846 7.85586 23.4368 8.68773C18.7889 9.51959 14.4208 11.5041 10.7278 14.4615L10.2641 14.1376C9.99868 13.2798 9.9916 12.1053 10.0058 10.8702V9.87358H6.9513V10.8738C7.00848 11.9689 6.91076 13.0666 6.66107 14.1341L6.63275 14.2088L6.16556 14.4259C5.64224 14.6052 5.08944 14.6814 4.53746 14.6502H4.13397L3.13233 14.6288V17.7219L4.13751 17.7005H4.45251C5.03692 17.6683 5.62182 17.7542 6.17264 17.9532L6.6009 18.1632L6.63983 18.2807C6.63983 18.3305 6.66815 18.3768 6.67877 18.4337C2.47049 23.4371 0.111052 29.7493 0 36.3015H0V52.3754H56.8138V42.1886V41.1849C56.8138 40.7649 56.8138 40.3235 56.8138 39.8893C56.8248 39.2266 56.9175 38.5678 57.0898 37.9281L57.1217 37.8427L57.5818 37.6362C58.1065 37.4523 58.6623 37.3749 59.217 37.4084H59.6311H60.6363V34.3118L59.6311 34.3581ZM6.58674 17.0492C5.91104 16.7838 5.18788 16.6626 4.46313 16.6932H4.13043V15.6254H4.56223C5.25472 15.6674 5.9482 15.5618 6.59736 15.3158L7.43265 14.9349L7.599 14.4366C7.89535 13.275 8.01469 12.0749 7.95293 10.8773H9.01474C8.99704 12.2583 9.01474 13.4649 9.32267 14.4544L9.48901 14.9776L9.88896 15.177L10.3101 15.3798C10.5096 15.4714 10.7185 15.5406 10.9331 15.5863C11.4312 15.6896 11.9394 15.7362 12.4479 15.7251H12.7806V16.7929L12.3524 16.7822C11.6585 16.7417 10.9639 16.8484 10.3137 17.0954L9.45716 17.4834L9.28727 17.9853C8.99988 19.1483 8.88773 20.3481 8.95457 21.5446H7.89277C7.93019 20.5932 7.884 19.6403 7.75473 18.6971C7.71853 18.4557 7.6629 18.2176 7.58838 17.9853L7.43265 17.551V17.4478L6.58674 17.0492ZM6.87697 19.7542C6.90882 20.3095 6.90882 20.9146 6.89821 21.5339V22.5376H9.95975V21.5339C9.95975 20.4341 9.95975 19.1954 10.2535 18.2771L10.2641 18.2059L10.7278 17.9924C11.2539 17.8149 11.8089 17.74 12.363 17.7717H12.7771L13.7787 17.7895V14.6929L12.7735 14.7178H12.4621C12.3134 14.7178 12.1718 14.7178 12.0374 14.7178C15.6136 12.0334 19.7876 10.2679 24.1967 9.57469C28.6058 8.88148 33.1165 9.28154 37.3368 10.7401C41.5572 12.1987 45.3595 14.6716 48.4133 17.944C51.4672 21.2164 53.6802 25.1893 54.86 29.5174H53.823V30.5247C53.8813 31.6173 53.7848 32.7127 53.5363 33.7779L53.508 33.8562L53.0408 34.0734C52.516 34.2513 51.9621 34.3262 51.4092 34.294H50.9667C50.5942 30.9056 49.4716 27.6442 47.6813 24.7493C45.891 21.8544 43.4786 19.3996 40.6212 17.5653H40.83V14.8744L39.8248 14.8958H39.6408C39.3174 14.913 38.9935 14.8708 38.6852 14.7712L38.5613 14.7071C38.4406 14.0813 38.3966 13.443 38.4303 12.8065V11.8063H35.7475V12.81C35.781 13.4351 35.7346 14.0619 35.6095 14.6751L35.4608 14.7427C35.1829 14.8302 34.8915 14.8664 34.6007 14.8495C31.2661 13.8981 27.759 13.7278 24.3487 14.3515C20.9383 14.9753 17.7155 16.3767 14.9275 18.448C12.1396 20.5193 9.86066 23.2055 8.26571 26.3004C6.67075 29.3952 5.80218 32.8165 5.72668 36.3015H0.998099C1.10024 30.2867 3.16592 24.4724 6.87697 19.7542ZM28.4069 25.4491C25.5019 25.4528 22.7103 26.583 20.6131 28.6045C18.5159 30.6259 17.2748 33.3829 17.1482 36.3015H12.4231C12.5612 32.1305 14.3058 28.1768 17.2886 25.2754C20.2714 22.3739 24.2588 20.7519 28.4086 20.7519C32.5585 20.7519 36.5459 22.3739 39.5287 25.2754C42.5115 28.1768 44.2561 32.1305 44.3941 36.3015H39.6726C39.5407 33.3848 38.2965 30.6314 36.1986 28.6131C34.1006 26.5948 31.3102 25.4668 28.4069 25.4634V25.4491ZM38.671 36.2873H18.1321C18.2524 33.6281 19.3874 31.118 21.3011 29.279C23.2149 27.44 25.7599 26.4138 28.4069 26.4138C31.0538 26.4138 33.5989 27.44 35.5126 29.279C37.4263 31.118 38.5614 33.6281 38.6816 36.2873H38.671ZM28.4069 19.7115C23.9882 19.7143 19.7444 21.4483 16.5759 24.5456C13.4074 27.6428 11.5636 31.8597 11.4357 36.3015H6.72478C6.85959 30.6024 9.20382 25.182 13.2572 21.1968C17.3107 17.2116 22.7523 14.9773 28.421 14.9705C30.0773 14.969 31.7281 15.1601 33.3407 15.54V17.5368L34.3318 17.519H34.5264C34.8478 17.5009 35.1697 17.5444 35.475 17.6471L35.5989 17.7076C35.7214 18.3332 35.7654 18.9717 35.7298 19.6083V20.612H38.4056V19.6047C38.3751 18.9795 38.4227 18.353 38.5471 17.7397L38.6922 17.672L38.802 17.6329C41.8934 19.3279 44.5295 21.7523 46.4838 24.6978C48.4381 27.6433 49.6522 31.0218 50.0217 34.5432V36.3228H45.3781C45.2519 31.8798 43.4089 27.6612 40.2403 24.5623C37.0716 21.4635 32.8268 19.7286 28.4069 19.7258V19.7115ZM36.7562 12.778H37.4429C37.3933 13.545 37.4577 14.3152 37.634 15.0631L37.7437 15.4012L38.264 15.6504C38.7002 15.8196 39.1668 15.8948 39.6337 15.871H39.839V16.5687H39.5665C39.3596 16.568 39.1528 16.5787 38.9471 16.6007C38.7115 16.619 38.4806 16.6768 38.264 16.7715L37.7189 17.0207V17.0776L37.634 17.3375C37.4418 18.0816 37.3678 18.8516 37.4145 19.619H36.7314C36.7818 18.853 36.7162 18.0837 36.5368 17.3375L36.4341 17.0029L35.9068 16.7502C35.4737 16.5785 35.009 16.5021 34.5441 16.5259H34.3318V15.8426H34.6043C35.0475 15.8688 35.4913 15.8008 35.9068 15.6432L36.3846 15.4297L36.4589 15.3941L36.558 15.0773C36.7412 14.3305 36.808 13.5596 36.7562 12.7922V12.778ZM55.8298 51.3716H0.98748V37.2945H51.7242C52.1758 37.3168 52.6201 37.4179 53.0373 37.5935L53.4655 37.8035L53.508 37.921C53.7699 38.7752 53.777 39.9533 53.7664 41.1849V42.1886H55.8475L55.8298 51.3716ZM59.6488 36.4225H59.217C58.5218 36.3849 57.8264 36.4928 57.1748 36.7393L56.8208 36.903L56.3253 37.1308L56.1625 37.6291C55.96 38.3573 55.8506 39.1084 55.8369 39.8644C55.8192 40.2879 55.8192 40.74 55.8369 41.2027H54.7751C54.7751 39.8252 54.7751 38.6186 54.4707 37.6434L54.3645 37.3159L54.3043 37.113L53.4443 36.693C52.9013 36.4679 52.3247 36.3356 51.7383 36.3015C51.5507 36.3015 51.3631 36.2801 51.1649 36.2801H50.9738V35.2906H51.4056C52.0992 35.3307 52.7934 35.2253 53.4443 34.981L54.315 34.5788L54.4778 34.0734C54.7892 33.0874 54.8317 31.8773 54.8317 30.514H55.8935C55.8935 31.8915 55.8935 33.1017 56.2014 34.0734L56.3678 34.6001L56.75 34.7888L57.1854 35.0023C57.867 35.2686 58.5961 35.3898 59.3267 35.3583H59.6594L59.6488 36.4225Z" fill="black"/>
<path d="M38.6813 36.3031H18.1318C18.2521 33.6439 19.3871 31.1338 21.3008 29.2948C23.2146 27.4558 25.7596 26.4296 28.4066 26.4296C31.0535 26.4296 33.5986 27.4558 35.5123 29.2948C37.4261 31.1338 38.5611 33.6439 38.6813 36.3031Z" fill="#F5F5F5"/>
</g>
<defs>
<clipPath id="clip0_5_2171">
<rect width="63.7084" height="47.2321" fill="white" transform="translate(0 8.24023)"/>
</clipPath>
</defs>
</svg>
