<svg width="64" height="64" viewBox="0 0 64 64" fill="none" xmlns="http://www.w3.org/2000/svg">
<g clip-path="url(#clip0_5_2071)">
<path d="M55.1304 39.1953V55.8091C55.1276 57.9034 54.2944 59.9111 52.8135 61.392C51.3326 62.8729 49.3249 63.7061 47.2306 63.7089H25.9484C22.1957 63.7024 18.5985 62.2087 15.9449 59.5551C13.2913 56.9015 11.7976 53.3043 11.791 49.5515V45.0777L19.9315 35.3728V8.68962C19.9325 7.24052 20.5078 5.85088 21.5315 4.82522C22.5552 3.79956 23.9437 3.22152 25.3928 3.21777H25.4919C26.9416 3.22058 28.331 3.79821 29.3554 4.82397C30.3799 5.84974 30.9557 7.23991 30.9566 8.68962V22.171L44.976 5.46526C45.4371 4.91466 46.0024 4.46048 46.6393 4.12875C47.2763 3.79703 47.9725 3.59428 48.688 3.53213C49.4035 3.46999 50.1242 3.54967 50.8088 3.76661C51.4935 3.98354 52.1285 4.33347 52.6777 4.79633L52.752 4.8565C53.8602 5.78931 54.5533 7.1235 54.6794 8.56655C54.8054 10.0096 54.3541 11.4438 53.4245 12.5546L41.1925 27.1615C41.977 27.0212 42.7827 27.055 43.5527 27.2605C44.3228 27.466 45.0382 27.8382 45.6485 28.3507L45.7264 28.4145C46.4862 29.0541 47.0578 29.8884 47.3802 30.8279C47.7025 31.7674 47.7633 32.7768 47.5562 33.7483C48.4759 33.3737 49.4804 33.2571 50.4615 33.4112C51.4425 33.5652 52.363 33.984 53.1236 34.6225L53.1979 34.6827C53.7493 35.1437 54.2037 35.7096 54.5348 36.3475C54.8659 36.9854 55.0672 37.6827 55.1269 38.399C55.1458 38.6641 55.1469 38.9301 55.1304 39.1953Z" fill="black"/>
<path d="M51.2698 36.0591V52.5879C51.2689 54.5157 50.5027 56.3642 49.1395 57.7274C47.7764 59.0906 45.9278 59.8568 44 59.8577H22.7214C19.1324 59.8568 15.6908 58.4304 13.1533 55.8923C10.6159 53.3542 9.19043 49.9122 9.19043 46.3232V42.076L17.3309 32.3675V5.46843C17.3305 4.83339 17.4552 4.20449 17.698 3.6177C17.9408 3.03091 18.2969 2.49774 18.746 2.0487C19.195 1.59966 19.7282 1.24355 20.315 1.00074C20.9018 0.75794 21.5307 0.633203 22.1657 0.633668H22.2613C22.8963 0.633203 23.5252 0.75794 24.112 1.00074C24.6988 1.24355 25.232 1.59966 25.681 2.0487C26.13 2.49774 26.4862 3.03091 26.729 3.6177C26.9718 4.20449 27.0965 4.83339 27.096 5.46843V20.6877L42.2374 2.63694C42.6453 2.15051 43.1451 1.74924 43.7082 1.45606C44.2713 1.16289 44.8866 0.983571 45.519 0.928348C46.1515 0.873126 46.7886 0.943087 47.3939 1.13423C47.9993 1.32538 48.5611 1.63396 49.0471 2.04233L49.1179 2.10604C49.6043 2.51395 50.0056 3.01374 50.2988 3.57682C50.592 4.1399 50.7713 4.75524 50.8265 5.38767C50.8817 6.0201 50.8118 6.65721 50.6206 7.26258C50.4295 7.86795 50.1209 8.42972 49.7125 8.91576L35.4631 25.9188C36.3164 25.0569 37.4625 24.5472 38.6741 24.4909C39.8856 24.4345 41.0741 24.8355 42.0038 25.6144L42.0781 25.6782C43.0584 26.5014 43.6724 27.6795 43.7859 28.9545C43.8993 30.2295 43.5029 31.4975 42.6834 32.4808C43.0903 31.9951 43.589 31.5944 44.151 31.3017C44.713 31.0091 45.3272 30.8302 45.9585 30.7753C46.5898 30.7204 47.2256 30.7905 47.8297 30.9818C48.4338 31.173 48.9943 31.4816 49.4789 31.8897L49.5497 31.9534C50.1458 32.4488 50.6134 33.0807 50.9129 33.7955C51.2124 34.5103 51.3348 35.2868 51.2698 36.0591Z" fill="#A259FF"/>
<path d="M51.9064 35.1778C51.8468 34.4617 51.6452 33.7646 51.3134 33.1271C50.9816 32.4897 50.5263 31.9247 49.9739 31.465L49.8996 31.4013C49.3517 30.9383 48.7172 30.5889 48.033 30.3732C47.3489 30.1575 46.6287 30.0799 45.9143 30.1448C45.3696 30.1923 44.8352 30.3212 44.3287 30.5271C44.537 29.5563 44.4774 28.5471 44.1564 27.6076C43.8353 26.6681 43.2648 25.8335 42.5059 25.1933L42.4316 25.1296C41.8195 24.6177 41.1027 24.246 40.3317 24.0406C39.5607 23.8351 38.7541 23.8009 37.9685 23.9403L50.204 9.33694C51.1339 8.22552 51.5853 6.79079 51.4592 5.34717C51.3332 3.90354 50.64 2.56875 49.5315 1.6353L49.4572 1.5716C48.3455 0.640118 46.9095 0.188094 45.4647 0.314854C44.0199 0.441614 42.6845 1.13679 41.752 2.24761L27.7362 18.9534V5.46843C27.7352 4.01904 27.1593 2.62924 26.1348 1.60404C25.1102 0.578835 23.7208 0.00199678 22.2714 0.00012207L22.1723 0.00012207C20.7226 0.00199508 19.3328 0.57872 18.3077 1.60382C17.2826 2.62892 16.7059 4.01872 16.704 5.46843V32.1516L8.56348 41.8566V46.3232C8.57003 50.076 10.0637 53.6732 12.7173 56.3268C15.3709 58.9804 18.9681 60.4741 22.7209 60.4806H43.9995C46.0941 60.4788 48.1024 59.6459 49.5835 58.1648C51.0646 56.6837 51.8975 54.6754 51.8994 52.5808V35.9777C51.9229 35.7117 51.9253 35.4442 51.9064 35.1778ZM43.1855 32.8878C43.9004 32.0373 44.9235 31.5052 46.0304 31.4083C47.1372 31.3114 48.2373 31.6577 49.0891 32.3711L49.1634 32.4348C49.5869 32.7884 49.9358 33.2227 50.1898 33.7125C50.4438 34.2022 50.5978 34.7376 50.6429 35.2875C50.6429 35.3618 50.6429 35.4326 50.6429 35.5069V35.9564C50.5809 36.8371 50.2399 37.6752 49.6696 38.349L45.3728 43.4386C44.9816 43.9023 44.4938 44.2749 43.9436 44.5305C43.3934 44.786 42.794 44.9183 42.1874 44.9181H42.0599C41.289 44.9198 40.5327 44.7075 39.8752 44.3048C39.2177 43.9022 38.6849 43.325 38.336 42.6375C37.9871 41.95 37.8358 41.1791 37.899 40.4107C37.9623 39.6424 38.2375 38.9066 38.694 38.2853L43.1784 32.8949L43.1855 32.8878ZM41.614 26.1029L41.6883 26.163C42.5401 26.8793 43.0731 27.9041 43.1706 29.0127C43.2682 30.1213 42.9222 31.2233 42.2086 32.0773L37.8764 37.2412C37.7773 37.3616 37.6853 37.4819 37.5968 37.5952L36.0183 39.4887C35.8625 38.8561 35.5092 38.2895 35.0096 37.8712L29.8916 33.5815L35.9439 26.3577C36.686 25.6139 37.6798 25.1752 38.7294 25.128C39.779 25.0809 40.8082 25.4287 41.614 26.1029ZM17.9746 5.46843C17.9756 4.3551 18.418 3.28758 19.2049 2.5C19.9918 1.71243 21.059 1.26909 22.1723 1.26721H22.2714C23.3847 1.26909 24.4519 1.71243 25.2388 2.5C26.0257 3.28758 26.4681 4.3551 26.4691 5.46843V22.4361L42.7253 3.06167C43.0792 2.63857 43.5131 2.28948 44.0021 2.03443C44.4911 1.77938 45.0257 1.62337 45.5752 1.57537C46.1247 1.52736 46.6782 1.58829 47.204 1.75467C47.7299 1.92105 48.2178 2.1896 48.6396 2.54492L48.7139 2.60509C49.5662 3.32196 50.0993 4.34767 50.1962 5.45712C50.293 6.56658 49.9458 7.66915 49.2307 8.52289L34.9777 25.5366C34.8927 25.6251 34.8078 25.71 34.7264 25.8056L28.9219 32.7675L23.8216 28.4849C23.1918 27.9596 22.3796 27.7049 21.5626 27.7765C20.7455 27.8482 19.99 28.2402 19.4612 28.8671L17.9746 30.6368V5.46843ZM50.6429 52.5879C50.6401 54.3461 49.9404 56.0316 48.6971 57.2748C47.4538 58.5181 45.7684 59.2178 44.0101 59.2206H22.7209C19.303 59.2141 16.027 57.8529 13.6108 55.4354C11.1946 53.0179 9.83524 49.7412 9.83057 46.3232V42.3167L20.4486 29.6847C20.7603 29.3142 21.2061 29.0824 21.6884 29.0399C22.1707 28.9975 22.6501 29.1479 23.0217 29.4582L34.2097 38.8446C34.5801 39.1562 34.812 39.602 34.8544 40.0843C34.8969 40.5666 34.7465 41.0461 34.4362 41.4177L34.4008 41.4601L34.3725 41.492C33.2521 42.8272 31.6472 43.6627 29.9108 43.8147C28.1745 43.9666 26.4489 43.4227 25.1135 42.3025L22.6714 40.2497L22.2608 40.7381L22.1617 40.8585L21.9706 41.085L18.5445 45.1446L19.5178 45.9587L22.8094 42.0371L24.2818 43.2723C25.8745 44.6088 27.9328 45.2581 30.0042 45.0776C32.0756 44.8971 33.9905 43.9015 35.3281 42.3096L35.3883 42.2317L36.5881 40.7947C36.6076 42.23 37.1903 43.6001 38.2105 44.6098C39.2308 45.6194 40.6069 46.1878 42.0422 46.1923H42.1874C42.9787 46.1893 43.7597 46.0132 44.4757 45.6763C45.1917 45.3394 45.8253 44.8499 46.332 44.2421L50.6358 39.1525L50.6429 52.5879Z" fill="black"/>
</g>
<defs>
<clipPath id="clip0_5_2071">
<rect width="46.5815" height="63.7084" fill="white" transform="translate(8.56348 0.00012207)"/>
</clipPath>
</defs>
</svg>
