<svg width="37" height="37" viewBox="0 0 37 37" fill="none" xmlns="http://www.w3.org/2000/svg">
<path d="M34.6875 19.6616V24.2583C34.6875 26.051 33.8883 27.7676 32.4695 29.036L28.8096 32.3026H28.8073C24.8711 35.816 18.4865 35.816 14.5479 32.3026L1.06469 20.266C0.0904156 19.3964 0.0904156 17.9882 1.06469 17.1186C1.55068 16.6848 2.19098 16.4669 2.82898 16.4669C3.46698 16.4669 4.10498 16.6828 4.59327 17.1186L2.40749 15.1697C1.9215 14.7339 1.67736 14.1644 1.67736 13.595C1.67736 13.0235 1.9215 12.4561 2.40749 12.0203C3.38176 11.1507 4.96179 11.1507 5.93376 12.0203L3.75028 10.0693C3.2643 9.63555 3.02015 9.0661 3.02015 8.49459C3.02015 7.92308 3.2643 7.35568 3.75028 6.91986C4.72456 6.05026 6.30459 6.05026 7.27656 6.91986L8.49037 8.00326C8.00439 7.56949 7.76024 7.00003 7.76024 6.42853C7.76024 5.85702 8.00439 5.28962 8.49037 4.8538C9.46465 3.9842 11.0447 3.9842 12.0166 4.8538L24.825 16.286C25.1935 15.7988 25.615 15.3424 26.0872 14.921L22.197 10.0405C21.0915 8.65494 21.4577 6.73484 23.0078 5.74806L23.7794 5.25673C24.2031 4.98948 24.7882 5.07788 25.0876 5.45614L33.2849 15.7412C34.197 16.8904 34.6875 18.2596 34.6875 19.6616Z" fill="#C7B9FF"/>
<path d="M35.5351 17.3344L27.3402 7.04926C27.1421 6.80051 26.8496 6.63605 26.5133 6.58466C26.4718 6.57849 26.4281 6.57438 26.3866 6.57027L25.3617 5.2854C25.1659 5.03871 24.8711 4.87424 24.5371 4.82285C24.2031 4.77146 23.8646 4.84135 23.5859 5.01609L22.8143 5.50743C21.1145 6.58671 20.7137 8.70006 21.9229 10.2172L25.6519 14.8941C25.3409 15.1881 25.0507 15.5006 24.7836 15.8275L12.2539 4.644C11.1506 3.65928 9.35638 3.65928 8.25312 4.644C7.64046 5.19084 7.36868 5.93092 7.43777 6.64839C6.91263 6.21256 6.23548 5.96998 5.51226 5.96998C4.75679 5.96998 4.04739 6.23312 3.51303 6.71006C2.97868 7.187 2.68386 7.82018 2.68386 8.49448C2.68386 9.16878 2.97868 9.80196 3.51303 10.2789L4.40669 11.0765C4.32838 11.0704 4.25007 11.0663 4.16946 11.0663C3.41399 11.0663 2.70459 11.3294 2.17024 11.8063C1.06698 12.7911 1.06698 14.3925 2.17024 15.3772L3.0662 16.1769C2.26467 16.1173 1.44011 16.3599 0.827443 16.9047C-0.275814 17.8894 -0.275814 19.4909 0.827443 20.4756L14.3107 32.5122C14.336 32.5348 14.3613 32.5554 14.3867 32.578L16.2869 34.274C18.2561 36.0297 20.868 37 23.6527 37C24.9609 37 26.23 36.7862 27.4139 36.3771C28.5954 35.97 29.6941 35.3677 30.6545 34.5865L30.6638 34.5968L34.6829 31.0074C36.1777 29.6732 37 27.9031 37 26.018V21.4233C37 19.9514 36.4933 18.537 35.5351 17.3344ZM1.30191 17.3302C2.1449 16.5799 3.51303 16.5799 4.35602 17.3302L13.8708 25.8227L14.3452 25.3992L4.82819 16.9068L2.64471 14.9579C1.80402 14.2054 1.80402 12.9843 2.64471 12.2319C3.05238 11.868 3.59595 11.6666 4.17176 11.6666C4.74758 11.6666 5.29114 11.866 5.69882 12.2319L16.0681 21.487L16.5425 21.0635L6.17099 11.8105L3.9875 9.86158C3.57983 9.4977 3.35411 9.01459 3.35411 8.49859C3.35411 7.98465 3.57983 7.49948 3.9875 7.13561C4.39518 6.77173 4.93644 6.57027 5.51456 6.57027C6.09037 6.57027 6.63394 6.76968 7.04161 7.13561L19.4446 18.206L19.9191 17.7825L8.72759 7.79551C7.88691 7.0431 7.88691 5.82196 8.72759 5.06954C9.57058 4.31918 10.9387 4.31918 11.7817 5.06954L24.3966 16.3291C23.3026 17.8462 22.653 19.6451 22.5609 21.4891C22.4319 24.139 23.4315 26.5525 25.3755 28.2896L25.85 27.8661C22.1786 24.5872 22.3997 18.6398 26.3244 15.1367L26.5248 14.9579L22.4711 9.87186C21.4761 8.62194 21.8055 6.8848 23.2035 5.99465L23.9751 5.50331C24.1064 5.42108 24.2653 5.38819 24.4266 5.4108C24.5855 5.43547 24.7237 5.51359 24.8181 5.63077L33.0154 15.9159C33.8906 17.0157 34.3559 18.3088 34.3559 19.6574V24.2541C34.3559 25.9769 33.6027 27.5989 32.2369 28.82L28.934 31.768L28.5747 32.0887C26.7344 33.7313 24.2861 34.6379 21.6811 34.6379C19.0761 34.6379 16.63 33.7333 14.7874 32.0887L1.30422 20.0521C0.458923 19.3038 0.458923 18.0806 1.30191 17.3302Z" fill="black"/>
<path d="M30.9035 8.71025C29.6781 4.50822 26.6194 2.46477 21.5546 2.46477C21.5476 2.46477 21.543 2.46477 21.5361 2.46477V1.85626C21.543 1.85626 21.5476 1.85626 21.5546 1.85626C26.9004 1.85626 30.2678 4.11146 31.5645 8.55812L30.9035 8.71025Z" fill="black"/>
<path d="M32.0643 6.03578C31.2074 3.0919 27.3403 0.608512 23.6182 0.608512C23.6159 0.608512 23.6136 0.608512 23.6113 0.608512V0C23.6136 0 23.6182 0 23.6205 0C27.6282 0 31.7971 2.69308 32.7253 5.88365L32.0643 6.03578Z" fill="black"/>
<path d="M11.0397 32.5143C5.91731 32.0066 2.9323 29.3505 2.16992 24.6181L2.84477 24.5317C3.568 29.0175 6.27201 31.431 11.1157 31.9099L11.0397 32.5143Z" fill="black"/>
<path d="M8.24121 33.9245C4.56752 33.5606 0.981363 30.2611 0.410156 26.719L1.08501 26.6326C1.61476 29.9219 4.92683 32.985 8.31722 33.3201L8.24121 33.9245Z" fill="black"/>
</svg>
